ffmpeg started on 2026-04-01 at 10:36:08
Report written to "D:\Convert\FFMetrics\reports\psnr_report-6.txt"
Log level: 32
Command line:
ffmpeg -hide_banner -nostdin -r 24000/1001 -i "F:\\Convert\\files\\[DC] Make Heroine ga Oosugiru - 07_Telegram_HEVC(254).mkv" -r 24000/1001 -i "F:\\Convert\\files\\[DC] Make Heroine ga Oosugiru - 07_Telegram.mp4" -lavfi "[0:v]settb=AVTB,setpts=PTS-STARTPTS,format=pix_fmts=yuv420p10le,fps=24000/1001,scale=1920:1080:flags=lanczos:param0=3:out_range=limited:out_color_matrix=bt709:out_chroma_loc=left,setsar=1/1,setdar=(1920/1080)*(1/1),colorspace=format=yuv420p10:range=tv:primaries=bt709:trc=bt709:space=bt709:fast=0[main];[1:v]settb=AVTB,setpts=PTS-STARTPTS,format=pix_fmts=yuv420p,fps=24000/1001,scale=1920:1080:flags=lanczos:param0=3:out_range=limited:out_color_matrix=bt709:out_chroma_loc=left,setsar=1/1,setdar=(1920/1080)*(1/1),colorspace=format=yuv420p:range=tv:primaries=bt709:trc=bt709:space=bt709:fast=0[ref];[main][ref]psnr=eof_action=endall:stats_file='D\\:/Convert/FFMetrics/logs/psnr_logfile-6.txt'" -f null -
Input #0, matroska,webm, from 'F:\Convert\files\[DC] Make Heroine ga Oosugiru - 07_Telegram_HEVC(254).mkv':
  Metadata:
    COMPATIBLE_BRANDS: isomiso2avc1mp41
    MAJOR_BRAND     : isom
    MINOR_VERSION   : 512
    ENCODER         : Lavf61.7.100
  Duration: 00:24:06.79, start: -0.021000, bitrate: 1001 kb/s
  Stream #0:0: Video: hevc (Main 10), yuv420p10le(tv, bt709, progressive), 1920x1080 [SAR 1:1 DAR 16:9], 23.98 fps, 23.98 tbr, 1k tbn (default)
      Metadata:
        HANDLER_NAME    : VideoHandler
        VENDOR_ID       : [0][0][0][0]
        ENCODER         : Lavc61.19.100 libx265
        BPS             : 803916
        DURATION        : 00:24:06.569708333
        NUMBER_OF_FRAMES: 34683
        NUMBER_OF_BYTES : 145365011
        _STATISTICS_WRITING_APP: mkvpropedit v94.0 ('Initiate') 64-bit
        _STATISTICS_WRITING_DATE_UTC: 2026-03-30 09:06:32
        _STATISTICS_TAGS: BPS DURATION NUMBER_OF_FRAMES NUMBER_OF_BYTES
  Stream #0:1: Audio: aac (LC), 48000 Hz, stereo, fltp (default)
      Metadata:
        HANDLER_NAME    : SoundHandler
        VENDOR_ID       : [0][0][0][0]
        ENCODER         : Lavc61.19.100 aac
        BPS             : 193194
        DURATION        : 00:24:06.784000000
        NUMBER_OF_FRAMES: 67819
        NUMBER_OF_BYTES : 34938755
        _STATISTICS_WRITING_APP: mkvpropedit v94.0 ('Initiate') 64-bit
        _STATISTICS_WRITING_DATE_UTC: 2026-03-30 09:06:32
        _STATISTICS_TAGS: BPS DURATION NUMBER_OF_FRAMES NUMBER_OF_BYTES
Input #1, mov,mp4,m4a,3gp,3g2,mj2, from 'F:\Convert\files\[DC] Make Heroine ga Oosugiru - 07_Telegram.mp4':
  Metadata:
    major_brand     : isom
    minor_version   : 512
    compatible_brands: isomiso2avc1mp41
    encoder         : Lavf60.16.100
  Duration: 00:24:06.74, start: 0.000000, bitrate: 3764 kb/s
  Stream #1:0[0x1](und): Video: h264 (High) (avc1 / 0x31637661), yuv420p(tv, bt709, progressive), 1920x1080 [SAR 1:1 DAR 16:9], 3616 kb/s, 23.98 fps, 23.98 tbr, 24k tbn (default)
      Metadata:
        handler_name    : VideoHandler
        vendor_id       : [0][0][0][0]
        encoder         : Lavc60.31.102 h264_qsv
  Stream #1:1[0x2](und): Audio: aac (HE-AACv2) (mp4a / 0x6134706D), 48000 Hz, stereo, fltp, 144 kb/s (default)
      Metadata:
        handler_name    : SoundHandler
        vendor_id       : [0][0][0][0]
Stream mapping:
  Stream #0:0 (hevc) -> settb:default
  Stream #1:0 (h264) -> settb:default
  psnr:default -> Stream #0:0 (wrapped_avframe)
  Stream #0:1 -> #0:1 (aac (native) -> pcm_s16le (native))
Output #0, null, to 'pipe:':
  Metadata:
    COMPATIBLE_BRANDS: isomiso2avc1mp41
    MAJOR_BRAND     : isom
    MINOR_VERSION   : 512
    encoder         : Lavf61.7.100
  Stream #0:0: Video: wrapped_avframe, yuv420p10le(tv, bt709, progressive), 1920x1080 [SAR 1:1 DAR 16:9], q=2-31, 200 kb/s, 23.98 fps, 23.98 tbn
      Metadata:
        encoder         : Lavc61.19.100 wrapped_avframe
  Stream #0:1: Audio: pcm_s16le, 48000 Hz, stereo, s16, 1536 kb/s (default)
      Metadata:
        HANDLER_NAME    : SoundHandler
        VENDOR_ID       : [0][0][0][0]
        _STATISTICS_TAGS: BPS DURATION NUMBER_OF_FRAMES NUMBER_OF_BYTES
        BPS             : 193194
        DURATION        : 00:24:06.784000000
        NUMBER_OF_FRAMES: 67819
        NUMBER_OF_BYTES : 34938755
        _STATISTICS_WRITING_APP: mkvpropedit v94.0 ('Initiate') 64-bit
        _STATISTICS_WRITING_DATE_UTC: 2026-03-30 09:06:32
        encoder         : Lavc61.19.100 pcm_s16le
frame=  126 fps=0.0 q=-0.0 size=N/A time=00:00:05.25 bitrate=N/A speed=10.1x    frame=  316 fps=303 q=-0.0 size=N/A time=00:00:13.17 bitrate=N/A speed=12.6x    frame=  512 fps=329 q=-0.0 size=N/A time=00:00:21.35 bitrate=N/A speed=13.7x    frame=  703 fps=340 q=-0.0 size=N/A time=00:00:29.32 bitrate=N/A speed=14.2x    frame=  889 fps=343 q=-0.0 size=N/A time=00:00:37.07 bitrate=N/A speed=14.3x    frame= 1018 fps=328 q=-0.0 size=N/A time=00:00:42.45 bitrate=N/A speed=13.7x    frame= 1173 fps=325 q=-0.0 size=N/A time=00:00:48.92 bitrate=N/A speed=13.5x    frame= 1328 fps=321 q=-0.0 size=N/A time=00:00:55.38 bitrate=N/A speed=13.4x    frame= 1473 fps=317 q=-0.0 size=N/A time=00:01:01.43 bitrate=N/A speed=13.2x    frame= 1612 fps=313 q=-0.0 size=N/A time=00:01:07.23 bitrate=N/A speed=  13x    frame= 1760 fps=310 q=-0.0 size=N/A time=00:01:13.40 bitrate=N/A speed=12.9x    frame= 1915 fps=309 q=-0.0 size=N/A time=00:01:19.87 bitrate=N/A speed=12.9x    frame= 2060 fps=307 q=-0.0 size=N/A time=00:01:25.91 bitrate=N/A speed=12.8x    frame= 2187 fps=302 q=-0.0 size=N/A time=00:01:31.21 bitrate=N/A speed=12.6x    frame= 2344 fps=303 q=-0.0 size=N/A time=00:01:37.76 bitrate=N/A speed=12.6x    frame= 2467 fps=299 q=-0.0 size=N/A time=00:01:42.89 bitrate=N/A speed=12.5x    frame= 2600 fps=296 q=-0.0 size=N/A time=00:01:48.44 bitrate=N/A speed=12.4x    frame= 2763 fps=297 q=-0.0 size=N/A time=00:01:55.24 bitrate=N/A speed=12.4x    frame= 2929 fps=299 q=-0.0 size=N/A time=00:02:02.16 bitrate=N/A speed=12.5x    frame= 3118 fps=302 q=-0.0 size=N/A time=00:02:10.04 bitrate=N/A speed=12.6x    frame= 3312 fps=306 q=-0.0 size=N/A time=00:02:18.13 bitrate=N/A speed=12.7x    frame= 3502 fps=309 q=-0.0 size=N/A time=00:02:26.06 bitrate=N/A speed=12.9x    frame= 3685 fps=311 q=-0.0 size=N/A time=00:02:33.69 bitrate=N/A speed=  13x    frame= 3888 fps=314 q=-0.0 size=N/A time=00:02:42.16 bitrate=N/A speed=13.1x    frame= 4078 fps=316 q=-0.0 size=N/A time=00:02:50.08 bitrate=N/A speed=13.2x    frame= 4270 fps=318 q=-0.0 size=N/A time=00:02:58.09 bitrate=N/A speed=13.3x    frame= 4454 fps=320 q=-0.0 size=N/A time=00:03:05.76 bitrate=N/A speed=13.3x    frame= 4642 fps=322 q=-0.0 size=N/A time=00:03:13.61 bitrate=N/A speed=13.4x    frame= 4799 fps=321 q=-0.0 size=N/A time=00:03:20.15 bitrate=N/A speed=13.4x    frame= 4987 fps=322 q=-0.0 size=N/A time=00:03:27.99 bitrate=N/A speed=13.4x    frame= 5173 fps=324 q=-0.0 size=N/A time=00:03:35.75 bitrate=N/A speed=13.5x    frame= 5367 fps=325 q=-0.0 size=N/A time=00:03:43.84 bitrate=N/A speed=13.6x    frame= 5561 fps=327 q=-0.0 size=N/A time=00:03:51.94 bitrate=N/A speed=13.6x    frame= 5742 fps=328 q=-0.0 size=N/A time=00:03:59.48 bitrate=N/A speed=13.7x    frame= 5940 fps=329 q=-0.0 size=N/A time=00:04:07.74 bitrate=N/A speed=13.7x    frame= 6121 fps=330 q=-0.0 size=N/A time=00:04:15.29 bitrate=N/A speed=13.7x    frame= 6306 fps=331 q=-0.0 size=N/A time=00:04:23.01 bitrate=N/A speed=13.8x    frame= 6495 fps=331 q=-0.0 size=N/A time=00:04:30.89 bitrate=N/A speed=13.8x    frame= 6678 fps=332 q=-0.0 size=N/A time=00:04:38.52 bitrate=N/A speed=13.8x    frame= 6859 fps=332 q=-0.0 size=N/A time=00:04:46.07 bitrate=N/A speed=13.9x    frame= 7043 fps=333 q=-0.0 size=N/A time=00:04:53.75 bitrate=N/A speed=13.9x    frame= 7231 fps=334 q=-0.0 size=N/A time=00:05:01.59 bitrate=N/A speed=13.9x    frame= 7416 fps=334 q=-0.0 size=N/A time=00:05:09.30 bitrate=N/A speed=13.9x    frame= 7605 fps=335 q=-0.0 size=N/A time=00:05:17.19 bitrate=N/A speed=  14x    frame= 7790 fps=336 q=-0.0 size=N/A time=00:05:24.90 bitrate=N/A speed=  14x    frame= 7968 fps=336 q=-0.0 size=N/A time=00:05:32.33 bitrate=N/A speed=  14x    frame= 8153 fps=336 q=-0.0 size=N/A time=00:05:40.04 bitrate=N/A speed=  14x    frame= 8340 fps=337 q=-0.0 size=N/A time=00:05:47.84 bitrate=N/A speed=  14x    frame= 8527 fps=337 q=-0.0 size=N/A time=00:05:55.64 bitrate=N/A speed=14.1x    frame= 8706 fps=338 q=-0.0 size=N/A time=00:06:03.11 bitrate=N/A speed=14.1x    frame= 8894 fps=338 q=-0.0 size=N/A time=00:06:10.95 bitrate=N/A speed=14.1x    frame= 9083 fps=339 q=-0.0 size=N/A time=00:06:18.83 bitrate=N/A speed=14.1x    frame= 9269 fps=339 q=-0.0 size=N/A time=00:06:26.59 bitrate=N/A speed=14.1x    frame= 9457 fps=340 q=-0.0 size=N/A time=00:06:34.43 bitrate=N/A speed=14.2x    frame= 9640 fps=340 q=-0.0 size=N/A time=00:06:42.06 bitrate=N/A speed=14.2x    frame= 9820 fps=340 q=-0.0 size=N/A time=00:06:49.57 bitrate=N/A speed=14.2x    frame=10012 fps=341 q=-0.0 size=N/A time=00:06:57.58 bitrate=N/A speed=14.2x    frame=10195 fps=341 q=-0.0 size=N/A time=00:07:05.21 bitrate=N/A speed=14.2x    frame=10378 fps=341 q=-0.0 size=N/A time=00:07:12.84 bitrate=N/A speed=14.2x    frame=10573 fps=342 q=-0.0 size=N/A time=00:07:20.98 bitrate=N/A speed=14.2x    frame=10756 fps=342 q=-0.0 size=N/A time=00:07:28.61 bitrate=N/A speed=14.3x    frame=10938 fps=342 q=-0.0 size=N/A time=00:07:36.20 bitrate=N/A speed=14.3x    frame=11123 fps=342 q=-0.0 size=N/A time=00:07:43.92 bitrate=N/A speed=14.3x    frame=11304 fps=342 q=-0.0 size=N/A time=00:07:51.47 bitrate=N/A speed=14.3x    frame=11498 fps=343 q=-0.0 size=N/A time=00:07:59.56 bitrate=N/A speed=14.3x    frame=11689 fps=343 q=-0.0 size=N/A time=00:08:07.52 bitrate=N/A speed=14.3x    frame=11875 fps=344 q=-0.0 size=N/A time=00:08:15.28 bitrate=N/A speed=14.3x    frame=12065 fps=344 q=-0.0 size=N/A time=00:08:23.21 bitrate=N/A speed=14.4x    frame=12259 fps=344 q=-0.0 size=N/A time=00:08:31.30 bitrate=N/A speed=14.4x    frame=12446 fps=345 q=-0.0 size=N/A time=00:08:39.10 bitrate=N/A speed=14.4x    frame=12631 fps=345 q=-0.0 size=N/A time=00:08:46.81 bitrate=N/A speed=14.4x    frame=12829 fps=346 q=-0.0 size=N/A time=00:08:55.07 bitrate=N/A speed=14.4x    frame=13012 fps=346 q=-0.0 size=N/A time=00:09:02.70 bitrate=N/A speed=14.4x    frame=13197 fps=346 q=-0.0 size=N/A time=00:09:10.42 bitrate=N/A speed=14.4x    frame=13378 fps=346 q=-0.0 size=N/A time=00:09:17.97 bitrate=N/A speed=14.4x    frame=13567 fps=346 q=-0.0 size=N/A time=00:09:25.85 bitrate=N/A speed=14.4x    frame=13756 fps=346 q=-0.0 size=N/A time=00:09:33.73 bitrate=N/A speed=14.4x    frame=13936 fps=346 q=-0.0 size=N/A time=00:09:41.24 bitrate=N/A speed=14.5x    frame=14117 fps=346 q=-0.0 size=N/A time=00:09:48.79 bitrate=N/A speed=14.4x    frame=14295 fps=346 q=-0.0 size=N/A time=00:09:56.22 bitrate=N/A speed=14.5x    frame=14484 fps=347 q=-0.0 size=N/A time=00:10:04.10 bitrate=N/A speed=14.5x    frame=14667 fps=347 q=-0.0 size=N/A time=00:10:11.73 bitrate=N/A speed=14.5x    frame=14854 fps=347 q=-0.0 size=N/A time=00:10:19.53 bitrate=N/A speed=14.5x    frame=15029 fps=347 q=-0.0 size=N/A time=00:10:26.83 bitrate=N/A speed=14.5x    frame=15185 fps=346 q=-0.0 size=N/A time=00:10:33.34 bitrate=N/A speed=14.4x    frame=15369 fps=346 q=-0.0 size=N/A time=00:10:41.01 bitrate=N/A speed=14.4x    frame=15561 fps=347 q=-0.0 size=N/A time=00:10:49.02 bitrate=N/A speed=14.5x    frame=15752 fps=347 q=-0.0 size=N/A time=00:10:56.98 bitrate=N/A speed=14.5x    frame=15945 fps=347 q=-0.0 size=N/A time=00:11:05.03 bitrate=N/A speed=14.5x    frame=16134 fps=347 q=-0.0 size=N/A time=00:11:12.92 bitrate=N/A speed=14.5x    frame=16323 fps=348 q=-0.0 size=N/A time=00:11:20.80 bitrate=N/A speed=14.5x    frame=16511 fps=348 q=-0.0 size=N/A time=00:11:28.64 bitrate=N/A speed=14.5x    frame=16702 fps=348 q=-0.0 size=N/A time=00:11:36.61 bitrate=N/A speed=14.5x    frame=16893 fps=348 q=-0.0 size=N/A time=00:11:44.57 bitrate=N/A speed=14.5x    frame=17070 fps=348 q=-0.0 size=N/A time=00:11:51.96 bitrate=N/A speed=14.5x    frame=17269 fps=348 q=-0.0 size=N/A time=00:12:00.26 bitrate=N/A speed=14.5x    frame=17447 fps=348 q=-0.0 size=N/A time=00:12:07.68 bitrate=N/A speed=14.5x    frame=17626 fps=348 q=-0.0 size=N/A time=00:12:15.15 bitrate=N/A speed=14.5x    frame=17808 fps=348 q=-0.0 size=N/A time=00:12:22.74 bitrate=N/A speed=14.5x    frame=17997 fps=349 q=-0.0 size=N/A time=00:12:30.62 bitrate=N/A speed=14.5x    frame=18184 fps=349 q=-0.0 size=N/A time=00:12:38.42 bitrate=N/A speed=14.5x    frame=18356 fps=349 q=-0.0 size=N/A time=00:12:45.59 bitrate=N/A speed=14.5x    frame=18535 fps=349 q=-0.0 size=N/A time=00:12:53.06 bitrate=N/A speed=14.5x    frame=18733 fps=349 q=-0.0 size=N/A time=00:13:01.32 bitrate=N/A speed=14.6x    frame=18915 fps=349 q=-0.0 size=N/A time=00:13:08.91 bitrate=N/A speed=14.6x    frame=19105 fps=349 q=-0.0 size=N/A time=00:13:16.83 bitrate=N/A speed=14.6x    frame=19305 fps=350 q=-0.0 size=N/A time=00:13:25.17 bitrate=N/A speed=14.6x    frame=19498 fps=350 q=-0.0 size=N/A time=00:13:33.22 bitrate=N/A speed=14.6x    frame=19690 fps=350 q=-0.0 size=N/A time=00:13:41.23 bitrate=N/A speed=14.6x    frame=19887 fps=350 q=-0.0 size=N/A time=00:13:49.45 bitrate=N/A speed=14.6x    frame=20074 fps=350 q=-0.0 size=N/A time=00:13:57.25 bitrate=N/A speed=14.6x    frame=20266 fps=351 q=-0.0 size=N/A time=00:14:05.26 bitrate=N/A speed=14.6x    frame=20447 fps=351 q=-0.0 size=N/A time=00:14:12.81 bitrate=N/A speed=14.6x    frame=20622 fps=351 q=-0.0 size=N/A time=00:14:20.10 bitrate=N/A speed=14.6x    frame=20804 fps=351 q=-0.0 size=N/A time=00:14:27.70 bitrate=N/A speed=14.6x    frame=20997 fps=351 q=-0.0 size=N/A time=00:14:35.74 bitrate=N/A speed=14.6x    frame=21184 fps=351 q=-0.0 size=N/A time=00:14:43.54 bitrate=N/A speed=14.6x    frame=21377 fps=351 q=-0.0 size=N/A time=00:14:51.59 bitrate=N/A speed=14.6x    frame=21571 fps=351 q=-0.0 size=N/A time=00:14:59.69 bitrate=N/A speed=14.6x    frame=21761 fps=351 q=-0.0 size=N/A time=00:15:07.61 bitrate=N/A speed=14.7x    frame=21948 fps=352 q=-0.0 size=N/A time=00:15:15.41 bitrate=N/A speed=14.7x    frame=22138 fps=352 q=-0.0 size=N/A time=00:15:23.33 bitrate=N/A speed=14.7x    frame=22322 fps=352 q=-0.0 size=N/A time=00:15:31.01 bitrate=N/A speed=14.7x    frame=22515 fps=352 q=-0.0 size=N/A time=00:15:39.06 bitrate=N/A speed=14.7x    frame=22706 fps=352 q=-0.0 size=N/A time=00:15:47.02 bitrate=N/A speed=14.7x    frame=22887 fps=352 q=-0.0 size=N/A time=00:15:54.57 bitrate=N/A speed=14.7x    frame=23064 fps=352 q=-0.0 size=N/A time=00:16:01.96 bitrate=N/A speed=14.7x    frame=23259 fps=352 q=-0.0 size=N/A time=00:16:10.09 bitrate=N/A speed=14.7x    frame=23455 fps=352 q=-0.0 size=N/A time=00:16:18.26 bitrate=N/A speed=14.7x    frame=23644 fps=352 q=-0.0 size=N/A time=00:16:26.15 bitrate=N/A speed=14.7x    frame=23834 fps=352 q=-0.0 size=N/A time=00:16:34.07 bitrate=N/A speed=14.7x    frame=24027 fps=353 q=-0.0 size=N/A time=00:16:42.12 bitrate=N/A speed=14.7x    frame=24206 fps=353 q=-0.0 size=N/A time=00:16:49.59 bitrate=N/A speed=14.7x    frame=24404 fps=353 q=-0.0 size=N/A time=00:16:57.85 bitrate=N/A speed=14.7x    frame=24585 fps=353 q=-0.0 size=N/A time=00:17:05.39 bitrate=N/A speed=14.7x    frame=24774 fps=353 q=-0.0 size=N/A time=00:17:13.28 bitrate=N/A speed=14.7x    frame=24975 fps=353 q=-0.0 size=N/A time=00:17:21.66 bitrate=N/A speed=14.7x    frame=25166 fps=353 q=-0.0 size=N/A time=00:17:29.63 bitrate=N/A speed=14.7x    frame=25352 fps=353 q=-0.0 size=N/A time=00:17:37.38 bitrate=N/A speed=14.7x    frame=25547 fps=354 q=-0.0 size=N/A time=00:17:45.52 bitrate=N/A speed=14.7x    frame=25738 fps=354 q=-0.0 size=N/A time=00:17:53.48 bitrate=N/A speed=14.8x    frame=25931 fps=354 q=-0.0 size=N/A time=00:18:01.53 bitrate=N/A speed=14.8x    frame=26113 fps=354 q=-0.0 size=N/A time=00:18:09.12 bitrate=N/A speed=14.8x    frame=26314 fps=354 q=-0.0 size=N/A time=00:18:17.51 bitrate=N/A speed=14.8x    frame=26504 fps=354 q=-0.0 size=N/A time=00:18:25.43 bitrate=N/A speed=14.8x    frame=26691 fps=354 q=-0.0 size=N/A time=00:18:33.23 bitrate=N/A speed=14.8x    frame=26892 fps=354 q=-0.0 size=N/A time=00:18:41.62 bitrate=N/A speed=14.8x    frame=27055 fps=354 q=-0.0 size=N/A time=00:18:48.41 bitrate=N/A speed=14.8x    frame=27235 fps=354 q=-0.0 size=N/A time=00:18:55.92 bitrate=N/A speed=14.8x    frame=27420 fps=354 q=-0.0 size=N/A time=00:19:03.64 bitrate=N/A speed=14.8x    frame=27595 fps=354 q=-0.0 size=N/A time=00:19:10.94 bitrate=N/A speed=14.8x    frame=27786 fps=354 q=-0.0 size=N/A time=00:19:18.90 bitrate=N/A speed=14.8x    frame=27966 fps=354 q=-0.0 size=N/A time=00:19:26.41 bitrate=N/A speed=14.8x    frame=28152 fps=354 q=-0.0 size=N/A time=00:19:34.17 bitrate=N/A speed=14.8x    frame=28348 fps=354 q=-0.0 size=N/A time=00:19:42.34 bitrate=N/A speed=14.8x    frame=28529 fps=354 q=-0.0 size=N/A time=00:19:49.89 bitrate=N/A speed=14.8x    frame=28710 fps=354 q=-0.0 size=N/A time=00:19:57.44 bitrate=N/A speed=14.8x    frame=28881 fps=354 q=-0.0 size=N/A time=00:20:04.57 bitrate=N/A speed=14.8x    frame=29037 fps=354 q=-0.0 size=N/A time=00:20:11.08 bitrate=N/A speed=14.8x    frame=29209 fps=354 q=-0.0 size=N/A time=00:20:18.25 bitrate=N/A speed=14.8x    frame=29389 fps=354 q=-0.0 size=N/A time=00:20:25.76 bitrate=N/A speed=14.8x    frame=29555 fps=354 q=-0.0 size=N/A time=00:20:32.68 bitrate=N/A speed=14.7x    frame=29729 fps=353 q=-0.0 size=N/A time=00:20:39.94 bitrate=N/A speed=14.7x    frame=29898 fps=353 q=-0.0 size=N/A time=00:20:46.99 bitrate=N/A speed=14.7x    frame=30052 fps=353 q=-0.0 size=N/A time=00:20:53.41 bitrate=N/A speed=14.7x    frame=30239 fps=353 q=-0.0 size=N/A time=00:21:01.21 bitrate=N/A speed=14.7x    frame=30424 fps=353 q=-0.0 size=N/A time=00:21:08.93 bitrate=N/A speed=14.7x    frame=30617 fps=353 q=-0.0 size=N/A time=00:21:16.98 bitrate=N/A speed=14.7x    frame=30808 fps=353 q=-0.0 size=N/A time=00:21:24.95 bitrate=N/A speed=14.7x    frame=30992 fps=353 q=-0.0 size=N/A time=00:21:32.62 bitrate=N/A speed=14.7x    frame=31189 fps=353 q=-0.0 size=N/A time=00:21:40.84 bitrate=N/A speed=14.7x    frame=31367 fps=353 q=-0.0 size=N/A time=00:21:48.26 bitrate=N/A speed=14.7x    frame=31534 fps=353 q=-0.0 size=N/A time=00:21:55.23 bitrate=N/A speed=14.7x    frame=31709 fps=353 q=-0.0 size=N/A time=00:22:02.52 bitrate=N/A speed=14.7x    frame=31886 fps=353 q=-0.0 size=N/A time=00:22:09.91 bitrate=N/A speed=14.7x    frame=32054 fps=353 q=-0.0 size=N/A time=00:22:16.91 bitrate=N/A speed=14.7x    frame=32243 fps=353 q=-0.0 size=N/A time=00:22:24.80 bitrate=N/A speed=14.7x    frame=32434 fps=353 q=-0.0 size=N/A time=00:22:32.76 bitrate=N/A speed=14.7x    frame=32614 fps=353 q=-0.0 size=N/A time=00:22:40.27 bitrate=N/A speed=14.7x    frame=32752 fps=353 q=-0.0 size=N/A time=00:22:46.03 bitrate=N/A speed=14.7x    frame=32909 fps=352 q=-0.0 size=N/A time=00:22:52.57 bitrate=N/A speed=14.7x    frame=33086 fps=352 q=-0.0 size=N/A time=00:22:59.96 bitrate=N/A speed=14.7x    frame=33266 fps=352 q=-0.0 size=N/A time=00:23:07.46 bitrate=N/A speed=14.7x    frame=33435 fps=352 q=-0.0 size=N/A time=00:23:14.51 bitrate=N/A speed=14.7x    frame=33578 fps=352 q=-0.0 size=N/A time=00:23:20.48 bitrate=N/A speed=14.7x    frame=33728 fps=351 q=-0.0 size=N/A time=00:23:26.73 bitrate=N/A speed=14.7x    frame=33849 fps=351 q=-0.0 size=N/A time=00:23:31.78 bitrate=N/A speed=14.6x    frame=33989 fps=350 q=-0.0 size=N/A time=00:23:37.62 bitrate=N/A speed=14.6x    frame=34140 fps=350 q=-0.0 size=N/A time=00:23:43.92 bitrate=N/A speed=14.6x    frame=34292 fps=350 q=-0.0 size=N/A time=00:23:50.26 bitrate=N/A speed=14.6x    frame=34411 fps=349 q=-0.0 size=N/A time=00:23:55.22 bitrate=N/A speed=14.6x    frame=34578 fps=349 q=-0.0 size=N/A time=00:24:02.19 bitrate=N/A speed=14.6x    [Parsed_psnr_16 @ 00000202d1580b40] PSNR y:49.004425 u:50.334412 v:50.385998 average:49.411049 min:38.002316 max:inf
[out#0/null @ 00000202c4c0dec0] video:14903KiB audio:271276KiB subtitle:0KiB other streams:0KiB global headers:0KiB muxing overhead: unknown
frame=34683 fps=349 q=-0.0 Lsize=N/A time=00:24:06.57 bitrate=N/A speed=14.6x    
